<svg width="112" height="24" viewBox="0 0 112 24" fill="none" xmlns="http://www.w3.org/2000/svg">
<path d="M10.0217 2.29605C10.3735 1.504 11.4976 1.504 11.8494 2.29605L13.5953 6.22611C13.7405 6.55316 14.0495 6.77764 14.4054 6.81475L18.6826 7.26067C19.5446 7.35053 19.892 8.41961 19.2475 8.99898L16.0492 11.8738C15.7831 12.113 15.6651 12.4763 15.7398 12.8263L16.6374 17.0319C16.8183 17.8795 15.9089 18.5402 15.1587 18.1062L11.4363 15.9529C11.1265 15.7737 10.7446 15.7737 10.4348 15.9529L6.71239 18.1062C5.96219 18.5402 5.05278 17.8795 5.23369 17.0319L6.13132 12.8263C6.20602 12.4763 6.088 12.113 5.82186 11.8738L2.62363 8.99898C1.97908 8.41961 2.32644 7.35053 3.18845 7.26067L7.46564 6.81475C7.82158 6.77764 8.13056 6.55316 8.27584 6.22611L10.0217 2.29605Z" fill="url(#paint0_linear_1302_214)"/>
<path d="M28.7646 2.41565C29.1089 1.60183 30.2622 1.60183 30.6065 2.41565L32.2136 6.21421C32.3548 6.54796 32.6655 6.7792 33.0257 6.81863L37.0444 7.25855C37.8921 7.35134 38.2421 8.39452 37.6219 8.97984L34.5503 11.8789C34.2989 12.1162 34.1879 12.4666 34.2567 12.8054L35.1078 16.9923C35.2816 17.847 34.3542 18.499 33.6087 18.0462L30.2047 15.9786C29.8857 15.7848 29.4854 15.7848 29.1664 15.9786L25.7623 18.0462C25.0169 18.499 24.0895 17.847 24.2633 16.9923L25.1143 12.8054C25.1832 12.4666 25.0722 12.1162 24.8208 11.8789L21.7492 8.97984C21.129 8.39451 21.479 7.35134 22.3267 7.25855L26.3454 6.81863C26.7056 6.7792 27.0163 6.54796 27.1575 6.21421L28.7646 2.41565Z" fill="url(#paint1_linear_1302_214)"/>
<path d="M48.5363 2.08701C48.9012 1.337 49.9699 1.337 50.3348 2.08701L52.3602 6.24996C52.5127 6.56348 52.8175 6.77492 53.1646 6.80796L57.9583 7.26426C58.8467 7.34883 59.1878 8.46656 58.4979 9.03276L55.046 11.8658C54.7516 12.1075 54.62 12.4955 54.7067 12.8664L55.6956 17.0968C55.8908 17.9319 55.0132 18.6092 54.2548 18.2087L49.9026 15.9099C49.6104 15.7556 49.2607 15.7556 48.9685 15.9099L44.6163 18.2087C43.8579 18.6092 42.9803 17.9319 43.1755 17.0968L44.1644 12.8664C44.2511 12.4955 44.1195 12.1075 43.8251 11.8658L40.3732 9.03276C39.6833 8.46656 40.0244 7.34883 40.9128 7.26426L45.7065 6.80796C46.0536 6.77492 46.3584 6.56348 46.5109 6.24996L48.5363 2.08701Z" fill="url(#paint2_linear_1302_214)"/>
<path d="M68.2646 2.41565C68.6089 1.60183 69.7622 1.60183 70.1065 2.41565L71.7136 6.21421C71.8548 6.54796 72.1655 6.7792 72.5257 6.81863L76.5444 7.25855C77.3921 7.35134 77.7421 8.39452 77.1219 8.97984L74.0503 11.8789C73.7989 12.1162 73.6879 12.4666 73.7567 12.8054L74.6078 16.9923C74.7816 17.847 73.8542 18.499 73.1087 18.0462L69.7047 15.9786C69.3857 15.7848 68.9854 15.7848 68.6664 15.9786L65.2623 18.0462C64.5169 18.499 63.5895 17.847 63.7633 16.9923L64.6143 12.8054C64.6832 12.4666 64.5722 12.1162 64.3208 11.8789L61.2492 8.97984C60.629 8.39451 60.979 7.35134 61.8267 7.25855L65.8454 6.81863C66.2056 6.7792 66.5163 6.54796 66.6575 6.21421L68.2646 2.41565Z" fill="url(#paint3_linear_1302_214)"/>
<path d="M87.0217 2.29605C87.3735 1.504 88.4976 1.504 88.8494 2.29605L90.5953 6.22611C90.7405 6.55316 91.0495 6.77764 91.4054 6.81475L95.6826 7.26067C96.5446 7.35053 96.892 8.41961 96.2475 8.99898L93.0492 11.8738C92.7831 12.113 92.6651 12.4763 92.7398 12.8263L93.6374 17.0319C93.8183 17.8795 92.9089 18.5402 92.1587 18.1062L88.4363 15.9529C88.1265 15.7737 87.7446 15.7737 87.4348 15.9529L83.7124 18.1062C82.9622 18.5402 82.0528 17.8795 82.2337 17.0319L83.1313 12.8263C83.206 12.4763 83.088 12.113 82.8219 11.8738L79.6236 8.99898C78.9791 8.41961 79.3264 7.35053 80.1884 7.26067L84.4656 6.81475C84.8216 6.77764 85.1306 6.55316 85.2758 6.22611L87.0217 2.29605Z" fill="url(#paint4_linear_1302_214)"/>
<defs>
<linearGradient id="paint0_linear_1302_214" x1="13.5605" y1="4.83252" x2="14.873" y2="17.3013" gradientUnits="userSpaceOnUse">
<stop stop-color="#FFE600"/>
<stop offset="1" stop-color="#FFA800"/>
</linearGradient>
<linearGradient id="paint1_linear_1302_214" x1="32.1855" y1="4.83252" x2="33.5621" y2="17.2873" gradientUnits="userSpaceOnUse">
<stop stop-color="#FFE600"/>
<stop offset="1" stop-color="#FFA800"/>
</linearGradient>
<linearGradient id="paint2_linear_1302_214" x1="52.3105" y1="4.83252" x2="53.5111" y2="17.324" gradientUnits="userSpaceOnUse">
<stop stop-color="#FFE600"/>
<stop offset="1" stop-color="#FFA800"/>
</linearGradient>
<linearGradient id="paint3_linear_1302_214" x1="71.6855" y1="4.83252" x2="73.0621" y2="17.2873" gradientUnits="userSpaceOnUse">
<stop stop-color="#FFE600"/>
<stop offset="1" stop-color="#FFA800"/>
</linearGradient>
<linearGradient id="paint4_linear_1302_214" x1="90.5605" y1="4.83252" x2="91.873" y2="17.3013" gradientUnits="userSpaceOnUse">
<stop stop-color="#FFE600"/>
<stop offset="1" stop-color="#FFA800"/>
</linearGradient>
</defs>
</svg>
